<svg width="25" height="25" viewBox="0 0 25 25" fill="none" xmlns="http://www.w3.org/2000/svg">
<path fill-rule="evenodd" clip-rule="evenodd" d="M15.9147 5.1835C12.8813 5.1835 10.421 7.64258 10.421 10.6772C10.421 11.2801 9.93225 11.7689 9.3293 11.7689C8.72634 11.7689 8.23755 11.2801 8.23755 10.6772C8.23755 6.43636 11.6757 3 15.9147 3C20.1539 3 23.5919 6.43797 23.5919 10.6772C23.5919 14.9164 20.1539 18.3544 15.9147 18.3544C15.0226 18.3544 14.1631 18.2019 13.3633 17.9194C12.7947 17.7186 12.4966 17.0949 12.6974 16.5264C12.8982 15.9578 13.5219 15.6597 14.0904 15.8605C14.6589 16.0613 15.2726 16.1709 15.9147 16.1709C18.948 16.1709 21.4084 13.7105 21.4084 10.6772C21.4084 7.64388 18.948 5.1835 15.9147 5.1835Z" fill="#ED1C24"/>
<path fill-rule="evenodd" clip-rule="evenodd" d="M6.53361 13.7362C6.71452 14.0021 6.64564 14.3643 6.37978 14.5452L3.91636 16.2214L6.51781 16.7693L6.08664 19.5753L8.4964 17.9788C8.76447 17.8012 9.12578 17.8746 9.30338 18.1427C9.48099 18.4107 9.40765 18.772 9.13957 18.9496L4.53593 21.9996L5.19941 17.6817L1 16.7972L5.72466 13.5824C5.99053 13.4015 6.35271 13.4703 6.53361 13.7362Z" fill="black"/>
<path fill-rule="evenodd" clip-rule="evenodd" d="M16.2259 11.2509C16.4975 11.0788 16.5782 10.719 16.406 10.4474C16.2339 10.1758 15.8741 10.0951 15.6025 10.2673L11.4285 12.9125L8.16121 12.2033C7.84695 12.1351 7.5369 12.3346 7.46869 12.6488C7.40048 12.9631 7.59995 13.2731 7.91421 13.3413L10.8769 13.9844L10.4075 16.9283C10.3569 17.2459 10.5733 17.5443 10.8908 17.595C11.2084 17.6456 11.5069 17.4292 11.5575 17.1116L12.0722 13.8832L16.2259 11.2509Z" fill="black"/>
<path d="M15.9142 7.375C14.0888 7.375 12.6099 8.85396 12.6099 10.6794C12.6099 10.9356 12.6404 11.1845 12.6943 11.4232L15.2897 9.7783C15.4761 9.66039 15.6915 9.5978 15.9128 9.5978C16.3145 9.5978 16.6828 9.80014 16.8968 10.1393C17.2403 10.6823 17.0788 11.4028 16.5372 11.7464L13.9855 13.3636C14.5284 13.7537 15.1937 13.9852 15.9128 13.9852C17.7382 13.9852 19.2171 12.5062 19.2171 10.6808C19.2171 8.85541 17.7396 7.375 15.9142 7.375Z" fill="#ED1C24"/>
</svg>
